<?xml version="1.0" encoding="UTF-8"?><svg xmlns="http://www.w3.org/2000/svg" viewBox="0 0 972.16 296"><defs><style>.cls-1{fill:#f70011;}.cls-2{fill:#006eb9;}.cls-3{fill:#ffae00;}.cls-4{fill:#009c3e;}</style></defs><g id="text"><path d="m357.6,140.79h39.94c24.17,0,43.08,9.73,43.08,36.18,0,29.12-22.99,35.39-47.56,35.39h-13.18v43.32h-22.29v-114.89Zm39.79,55.56c13.73,0,21.5-5.65,21.5-19.54s-8.47-19.15-21.5-19.15h-17.5v38.69h17.5Z"/><path d="m455.45,171.63h20.09v15.77c5.65-11.54,14.83-17.03,27.62-17.03v18.6c-16.24,0-27.62,5.34-27.62,23.31v43.4h-20.09v-84.05Z"/><path d="m554.96,169.83c25.5,0,45.12,17.89,45.12,43.63s-20.64,43.79-45.99,43.79-46.14-17.74-46.14-43.4,21.74-44.02,47.01-44.02Zm23.54,43.79c0-15.46-7.85-28.33-24.33-28.33s-23.7,13.5-23.7,28.88,7.93,27.62,24.17,27.62,23.86-13.5,23.86-28.17Z"/><path d="m602.51,270.59c7.53-.39,11.85-3.84,11.85-11.69v-87.11h20.09v86.64c0,21.03-12.79,27.46-31.94,27.46v-15.3Zm21.74-134.51c6.51,0,11.69,4.79,11.69,11.38s-5.1,11.46-11.69,11.46-11.93-4.87-11.93-11.46,5.42-11.38,11.93-11.38Z"/><path d="m731.36,237.39c-6.98,14.83-22.05,19.86-37.51,19.86-26.53,0-43.24-17.74-43.24-43.87,0-24.64,17.03-43.55,42.3-43.55,27.15,0,40.42,15.85,40.42,48.26h-62.23c0,14.21,8.24,24.56,23.54,24.56,9.1,0,16.64-3.69,21.03-12.24l15.7,6.98Zm-18.05-32.49c-.63-12.71-8.32-20.48-20.17-20.48-12.63,0-20.01,8.87-21.74,20.48h41.91Z"/><path d="m824.35,231.9c-5.57,17.58-21.27,25.35-38.85,25.35-26.68,0-42.61-17.89-42.61-43.87s17.81-43.55,43.08-43.55c17.03,0,31.7,7.14,37.9,23.62l-16.25,7.14c-3.37-9.42-11.54-14.83-21.66-14.83-16.4,0-22.44,14.21-22.44,28.64s6.51,27.62,22.76,27.62c11.54,0,19.31-6.36,22.76-16.87l15.3,6.75Z"/><path d="m881.87,255.05c-4.32,1.26-8.79,2.04-13.81,2.04-16.01,0-25.5-8.32-25.5-25.03v-45.67h-11.3v-14.75h11.3v-17.34l20.09-8.71v26.05h18.52v14.75h-18.52v43.87c0,6.59,2.83,10.67,10.2,10.67,2.83,0,5.96-.63,9.02-1.65v15.77Z"/><path d="m906.51,230.65c3.14,8.24,11.69,12.16,20.8,12.16,6.51,0,14.6-2.04,14.6-9.97,0-8.4-9.1-10.36-19.46-12.56-13.5-2.82-28.64-6.12-28.64-24.96,0-17.26,16.09-25.5,31.31-25.5,13.34,0,28.57,5.02,34.06,18.29l-14.91,6.43c-3.3-7.46-11.54-10.28-18.44-10.28s-13.11,2.67-13.11,9.49c0,7.69,8.24,9.34,18.36,11.3,13.73,2.67,30.06,5.81,30.06,25.43s-16.56,26.76-34.06,26.76c-14.83,0-30.76-5.02-36.02-20.09l15.46-6.51Z"/><path d="m357.63,104.43l36.97-53.42h-33.23v-10.54h50.63v5.25l-36.07,53.42h35.03v10.54h-53.32v-5.25Z"/><path d="m443.57,57.96c15.36,0,27.18,10.78,27.18,26.28s-12.43,26.38-27.7,26.38-27.8-10.68-27.8-26.14,13.09-26.52,28.32-26.52Zm14.18,26.38c0-9.31-4.73-17.06-14.65-17.06s-14.28,8.13-14.28,17.39,4.77,16.64,14.56,16.64,14.37-8.13,14.37-16.97Z"/><path d="m479.02,36.12h12.1v30.96c3.26-6.29,9.93-9.12,16.92-9.12,12.1,0,18.15,8.51,18.15,20.04v31.67h-12.2v-30.49c0-7.28-3.78-11.25-10.83-11.25-7.75,0-12.05,4.78-12.05,12.01v29.73h-12.1V36.12Z"/><path d="m561.8,57.96c15.36,0,27.18,10.78,27.18,26.28s-12.43,26.38-27.7,26.38-27.8-10.68-27.8-26.14,13.09-26.52,28.32-26.52Zm14.18,26.38c0-9.31-4.73-17.06-14.65-17.06s-14.28,8.13-14.28,17.39,4.77,16.64,14.56,16.64,14.37-8.13,14.37-16.97Z"/></g><g id="logo"><path class="cls-3" d="m117.62,265.79c-2.17,0-4.35-.83-6.01-2.49l-54.32-54.32c-3.32-3.32-3.32-8.7,0-12.02,3.32-3.32,8.7-3.32,12.02,0l54.32,54.32c3.32,3.32,3.32,8.7,0,12.02-1.66,1.66-3.83,2.49-6.01,2.49Z"/><path class="cls-3" d="m117.69,167.13c-2.17,0-4.34-.83-6-2.48l-54.39-54.26c-3.32-3.31-3.33-8.69-.01-12.02,3.31-3.32,8.7-3.33,12.02-.01l54.39,54.26c3.32,3.31,3.33,8.69.01,12.02-1.66,1.66-3.84,2.5-6.02,2.5Z"/><path class="cls-3" d="m117.62,216.49c-2.17,0-4.35-.83-6.01-2.49l-54.21-54.21c-3.32-3.32-3.32-8.7,0-12.02,3.32-3.32,8.7-3.32,12.02,0l54.21,54.21c3.32,3.32,3.32,8.7,0,12.02-1.66,1.66-3.83,2.49-6.01,2.49Z"/><path class="cls-2" d="m180.95,202.46c-2.17,0-4.35-.83-6.01-2.49-3.32-3.32-3.32-8.7,0-12.02l106.05-106.05c3.32-3.32,8.7-3.32,12.02,0,3.32,3.32,3.32,8.7,0,12.02l-106.05,106.05c-1.66,1.66-3.83,2.49-6.01,2.49Z"/><path class="cls-2" d="m180.96,153.15c-2.17,0-4.35-.83-6.01-2.49-3.32-3.32-3.32-8.7,0-12.02l75.39-75.39-12.63-12.63-50.73,50.73c-3.32,3.32-8.7,3.32-12.02,0-3.32-3.32-3.32-8.7,0-12.02l56.73-56.73c3.19-3.19,8.83-3.19,12.02,0l24.65,24.65c3.32,3.32,3.32,8.7,0,12.02l-81.4,81.4c-1.66,1.66-3.83,2.49-6.01,2.49Z"/><path class="cls-4" d="m117.69,167.13c-2.17,0-4.35-.83-6.01-2.49-3.32-3.32-3.32-8.7,0-12.02l63.28-63.28c3.32-3.32,8.7-3.32,12.02,0,3.32,3.32,3.32,8.7,0,12.02l-63.28,63.28c-1.66,1.66-3.83,2.49-6.01,2.49Z"/><path class="cls-4" d="m117.62,216.49c-2.17,0-4.35-.83-6.01-2.49-3.32-3.32-3.32-8.7,0-12.02l63.34-63.34c3.32-3.32,8.7-3.32,12.02,0,3.32,3.32,3.32,8.7,0,12.02l-63.34,63.34c-1.66,1.66-3.83,2.49-6.01,2.49Z"/><path class="cls-4" d="m117.62,265.79c-2.17,0-4.35-.83-6.01-2.49-3.32-3.32-3.32-8.7,0-12.02l63.33-63.33c3.32-3.32,8.7-3.32,12.02,0,3.32,3.32,3.32,8.7,0,12.02l-63.33,63.33c-1.66,1.66-3.83,2.49-6.01,2.49Z"/><path class="cls-1" d="m63.3,211.47c-2.17,0-4.35-.83-6.01-2.49L7.99,159.68c-1.59-1.59-2.49-3.76-2.49-6.01s.9-4.42,2.49-6.01l49.3-49.3c3.32-3.32,8.7-3.32,12.02,0,3.32,3.32,3.32,8.7,0,12.02l-43.29,43.29,43.29,43.29c3.32,3.32,3.32,8.7,0,12.02-1.66,1.66-3.83,2.49-6.01,2.49Z"/></g></svg>