<svg width="530" height="126" viewBox="0 0 530 126" fill="none" xmlns="http://www.w3.org/2000/svg">
<path d="M159.238 13.5781L160.82 12.8848C161.211 13.9688 162.266 14.6035 163.398 14.6035C164.414 14.6035 165.498 14.2812 165.498 13.1582C165.498 11.9863 164.316 11.7129 162.949 11.4004C161.387 11.0391 159.57 10.6191 159.57 8.38281C159.57 6.40039 161.523 5.33594 163.291 5.33594C164.971 5.33594 166.484 6.09766 167.217 7.66016L165.654 8.34375C165.215 7.37695 164.316 6.92773 163.35 6.92773C162.471 6.92773 161.494 7.29883 161.494 8.27539C161.494 9.33984 162.637 9.57422 163.916 9.83789C165.576 10.1797 167.48 10.5801 167.48 12.8848C167.48 15.2383 165.508 16.1953 163.467 16.1953C161.602 16.1953 159.863 15.3945 159.238 13.5781Z" fill="black"/>
<path d="M157.754 14.2422V15.9219C157.256 16.0781 156.748 16.1562 156.191 16.1562C154.248 16.1562 153.213 15.1992 153.213 13.2168V7.15234H151.748V5.53125H153.213V3.4707L155.273 2.57227V5.53125H157.627V7.15234H155.273V13.0215C155.273 13.8613 155.605 14.457 156.582 14.457C156.934 14.457 157.344 14.3789 157.754 14.2422Z" fill="black"/>
<path d="M148.867 12.2695L150.547 12.9824C149.824 15.1113 147.959 16.1953 145.752 16.1953C142.5 16.1953 140.645 13.8516 140.645 10.6973C140.645 7.68945 142.764 5.33594 145.928 5.33594C147.939 5.33594 149.658 6.2832 150.488 8.24609L148.721 8.99805C148.311 7.78711 147.119 7.01562 145.781 7.01562C143.662 7.01562 142.764 8.94922 142.764 10.8633C142.764 12.8555 143.74 14.5156 145.908 14.5156C147.344 14.5156 148.428 13.5879 148.867 12.2695Z" fill="black"/>
<path d="M137.1 12.9238L138.818 13.6562C137.9 15.4336 136.26 16.1953 134.385 16.1953C131.084 16.1953 129.141 13.8516 129.141 10.8047C129.141 7.72852 131.113 5.33594 134.199 5.33594C137.861 5.33594 139.023 7.93359 139.023 11.1953H131.26C131.26 13.1191 132.285 14.584 134.287 14.584C135.566 14.584 136.543 13.9785 137.1 12.9238ZM131.318 9.71094H136.963C136.855 8.02148 135.977 6.91797 134.277 6.91797C132.5 6.91797 131.553 8.13867 131.318 9.71094Z" fill="black"/>
<path d="M126.035 3.80273C125.342 3.80273 124.736 3.24609 124.736 2.50391C124.736 1.80078 125.283 1.2832 126.016 1.2832C126.738 1.2832 127.314 1.79102 127.314 2.51367C127.314 3.24609 126.729 3.80273 126.035 3.80273ZM123.535 19.7988V18.1387C124.521 18.0605 125.02 17.6113 125.02 16.5957V5.56055H127.08V16.498C127.08 18.8906 125.771 19.7207 123.535 19.7988Z" fill="black"/>
<path d="M117.227 16.1953C114.043 16.1953 111.992 13.8418 111.992 10.6875C111.992 7.62109 114.209 5.32617 117.344 5.32617C120.518 5.32617 122.588 7.67969 122.588 10.7461C122.588 13.9199 120.361 16.1953 117.227 16.1953ZM117.295 14.5352C119.551 14.5352 120.469 12.7383 120.469 10.7754C120.469 8.73438 119.473 6.98633 117.256 6.98633C115 6.98633 114.111 8.7832 114.111 10.7656C114.111 12.8652 115.107 14.5352 117.295 14.5352Z" fill="black"/>
<path d="M105.41 16V5.53125H107.49V7.45508C108.232 6.01953 109.307 5.3457 110.908 5.3457V7.28906C108.77 7.36719 107.49 8.10938 107.49 10.4141V16H105.41Z" fill="black"/>
<path d="M93.3789 16V1.70312H98.0566C100.918 1.70312 103.223 2.91406 103.223 6.09766C103.223 9.62305 100.41 10.4336 97.3828 10.4043L95.5957 10.3848V16H93.3789ZM95.5957 8.72461H98.125C99.9707 8.72461 101.006 7.93359 101.006 6.05859C101.006 4.11523 99.8926 3.46094 98.125 3.46094H95.5957V8.72461Z" fill="black"/>
<path d="M81.6016 16.1953C78.418 16.1953 76.3672 13.8418 76.3672 10.6875C76.3672 7.62109 78.584 5.32617 81.7188 5.32617C84.8926 5.32617 86.9629 7.67969 86.9629 10.7461C86.9629 13.9199 84.7363 16.1953 81.6016 16.1953ZM81.6699 14.5352C83.9258 14.5352 84.8438 12.7383 84.8438 10.7754C84.8438 8.73438 83.8477 6.98633 81.6309 6.98633C79.375 6.98633 78.4863 8.7832 78.4863 10.7656C78.4863 12.8652 79.4824 14.5352 81.6699 14.5352Z" fill="black"/>
<path d="M64.8047 16V0.619141H66.8848V7.19141C67.5098 5.89258 68.8672 5.32617 70.293 5.32617C72.832 5.32617 74.082 7.10352 74.082 9.55469V16H72.002V9.61328C72.002 7.97266 71.1914 7.07422 69.6094 7.07422C67.8809 7.07422 66.8848 8.13867 66.8848 9.75V16H64.8047Z" fill="black"/>
<path d="M56.9141 16.1953C53.7305 16.1953 51.6797 13.8418 51.6797 10.6875C51.6797 7.62109 53.8965 5.32617 57.0312 5.32617C60.2051 5.32617 62.2754 7.67969 62.2754 10.7461C62.2754 13.9199 60.0488 16.1953 56.9141 16.1953ZM56.9824 14.5352C59.2383 14.5352 60.1562 12.7383 60.1562 10.7754C60.1562 8.73438 59.1602 6.98633 56.9434 6.98633C54.6875 6.98633 53.7988 8.7832 53.7988 10.7656C53.7988 12.8652 54.7949 14.5352 56.9824 14.5352Z" fill="black"/>
<path d="M39.5215 16V15.1016L47.4414 3.48047H40.2441V1.70312H50.3223V2.60156L42.5879 14.1641H50.166V16H39.5215Z" fill="black"/>
<path d="M32.4316 12.9238L34.1504 13.6562C33.2324 15.4336 31.5918 16.1953 29.7168 16.1953C26.416 16.1953 24.4727 13.8516 24.4727 10.8047C24.4727 7.72852 26.4453 5.33594 29.5312 5.33594C33.1934 5.33594 34.3555 7.93359 34.3555 11.1953H26.5918C26.5918 13.1191 27.6172 14.584 29.6191 14.584C30.8984 14.584 31.875 13.9785 32.4316 12.9238ZM26.6504 9.71094H32.2949C32.1875 8.02148 31.3086 6.91797 29.6094 6.91797C27.832 6.91797 26.8848 8.13867 26.6504 9.71094Z" fill="black"/>
<path d="M12.9102 16V0.619141H14.9902V7.19141C15.6152 5.89258 16.9727 5.32617 18.3984 5.32617C20.9375 5.32617 22.1875 7.10352 22.1875 9.55469V16H20.1074V9.61328C20.1074 7.97266 19.2969 7.07422 17.7148 7.07422C15.9863 7.07422 14.9902 8.13867 14.9902 9.75V16H12.9102Z" fill="black"/>
<path d="M4.54102 16V3.48047H0.478516V1.70312H10.8594V3.48047H6.79688V16H4.54102Z" fill="black"/>
<path d="M256.122 64.5925H274.748V83.2192H284.062V64.5925V55.2791V36.6524H274.748V55.2791H256.122V36.6524H246.808V55.2791V64.5925V82.5539H256.122V64.5925Z" fill="url(#paint0_linear_8068_292)"/>
<path d="M358.568 83.2192L367.882 52.1724L377.195 83.2192H386.508L400.479 36.6524H391.165L381.852 67.6991L372.538 36.6524H363.225L353.912 67.6991L344.598 36.6524H335.285L349.255 83.2192H358.568Z" fill="url(#paint1_linear_8068_292)"/>
<path d="M473.365 92.3729V81.2301H439.984L439.937 75.6554C439.937 72.5753 442.432 70.0807 445.512 70.0807H456.655C465.888 70.0807 473.372 62.5967 473.372 53.3632C473.372 44.1297 465.888 36.6457 456.655 36.6457H438.108V47.7885H456.655C459.735 47.7885 462.229 50.2832 462.229 53.3632C462.229 56.4433 459.735 58.9379 456.655 58.9379H445.512C436.278 58.9379 428.794 66.4219 428.794 75.6554V92.3729H473.372H473.365Z" fill="url(#paint2_linear_8068_292)"/>
<rect x="418" y="37" width="11" height="19" fill="#D54828"/>
<path d="M241.486 69.2491C241.486 61.5324 235.233 55.2791 227.516 55.2791H218.416C215.855 55.2791 213.613 53.3033 213.546 50.7422C213.48 48.1145 215.588 45.9658 218.203 45.9658H241.486V36.6524H218.203C210.486 36.6524 204.233 42.9057 204.233 50.6224C204.233 58.3392 210.486 64.5925 218.203 64.5925H227.303C229.864 64.5925 232.106 66.5682 232.173 69.1294C232.239 71.7571 230.131 73.9058 227.516 73.9058H204.233V83.2192H227.516C235.233 83.2192 241.486 76.9659 241.486 69.2491Z" fill="url(#paint3_linear_8068_292)"/>
<path d="M123.739 47.3228L137.709 83.2192H147.022L128.396 36.6524H119.082L100.455 83.2192H109.769L123.739 47.3228Z" fill="url(#paint4_linear_8068_292)"/>
<path d="M312.667 83.2192C325.526 83.2192 335.95 72.7949 335.95 59.9358C335.95 47.0767 325.526 36.6524 312.667 36.6524C299.808 36.6524 289.384 47.0767 289.384 59.9358C289.384 72.7949 299.808 83.2192 312.667 83.2192ZM312.667 45.9658C320.384 45.9658 326.637 52.219 326.637 59.9358C326.637 67.6526 320.384 73.9058 312.667 73.9058C304.95 73.9058 298.697 67.6526 298.697 59.9358C298.697 52.219 304.95 45.9658 312.667 45.9658Z" fill="url(#paint5_linear_8068_292)"/>
<path d="M77.1721 83.2192C90.0311 83.2192 100.455 72.7949 100.455 59.9358C100.455 47.0767 90.0311 36.6524 77.1721 36.6524C64.313 36.6524 53.8887 47.0767 53.8887 59.9358C53.8887 72.7949 64.313 83.2192 77.1721 83.2192ZM77.1721 45.9658C84.8888 45.9658 91.1421 52.219 91.1421 59.9358C91.1421 67.6526 84.8888 73.9058 77.1721 73.9058C69.4553 73.9058 63.202 67.6526 63.202 59.9358C63.202 52.219 69.4553 45.9658 77.1721 45.9658Z" fill="url(#paint6_linear_8068_292)"/>
<path d="M517.943 81.2301V47.7952H506.8V81.2301H500.181C497.68 81.2301 495.658 79.2078 495.658 76.7065V30H484.515V81.2301C484.515 87.3836 489.504 92.3729 495.658 92.3729H506.8V102.052H517.943V92.3729H529.086V81.2301H517.943Z" fill="url(#paint7_linear_8068_292)"/>
<path d="M41.3888 89.1731L29.9401 73.9058C40.2247 73.9058 48.5668 65.5637 48.5668 55.2791C48.5668 44.9945 40.2247 36.6524 29.9401 36.6524H2V120.473H11.3134V73.9324L11.493 73.9058H17.9658L34.1577 95.1602C37.3641 99.3712 42.3601 101.846 47.6554 101.846H400.326V93.5325L48.1078 92.5325C45.4601 92.5325 42.9721 91.2885 41.3888 89.1731ZM11.3134 64.5925V45.9658H30.6053C35.7476 45.9658 39.9187 50.1368 39.9187 55.2791C39.9187 60.4214 35.7476 64.5925 30.6053 64.5925H11.3134Z" fill="url(#paint8_linear_8068_292)"/>
<path d="M198.911 59.9358C198.911 47.0767 188.487 36.6524 175.628 36.6524H152.344V83.2192H175.628C188.487 83.2192 198.911 72.7949 198.911 59.9358ZM161.658 45.9658H175.628C183.344 45.9658 189.598 52.219 189.598 59.9358C189.598 67.6526 183.344 73.9058 175.628 73.9058H161.658V45.9658Z" fill="url(#paint9_linear_8068_292)"/>
<path d="M389.008 123.473V112.75H391.469L396.149 120.411V112.75H398.024V123.473H395.871L390.883 115.313V123.473H389.008Z" fill="black"/>
<path d="M384.313 123.473V112.75H386.386V123.473H384.313Z" fill="black"/>
<path d="M377.473 123.473V114.369H374.47V112.75H382.548V114.369H379.553V123.473H377.473Z" fill="black"/>
<path d="M365.095 120.938L366.714 120.243C367.153 121.466 368.237 122.096 369.541 122.096C370.53 122.096 371.57 121.576 371.57 120.455C371.57 119.268 370.398 119.056 369.094 118.822C367.432 118.521 365.608 118.17 365.608 115.702C365.608 113.643 367.453 112.596 369.307 112.596C371.02 112.596 372.536 113.299 373.203 114.969L371.68 115.658C371.225 114.713 370.369 114.142 369.285 114.142C368.413 114.142 367.541 114.508 367.541 115.555C367.541 116.712 368.625 116.917 369.929 117.152C371.614 117.452 373.547 117.789 373.547 120.294C373.547 122.469 371.518 123.619 369.541 123.619C367.615 123.619 365.681 122.931 365.095 120.938Z" fill="black"/>
<path d="M354.768 112.75H356.848V119.225C356.848 120.814 357.215 121.971 359.09 121.971C360.972 121.971 361.382 120.792 361.382 119.107V112.75H363.462V119.261C363.462 122.125 361.909 123.619 359.09 123.619C356.284 123.619 354.768 122.147 354.768 119.378V112.75Z" fill="black"/>
<path d="M343.467 123.473L347.085 112.75H349.773L353.37 123.473H351.224L350.425 120.997H346.214L345.438 123.473H343.467ZM346.69 119.51H349.964L348.331 114.427L346.69 119.51Z" fill="black"/>
<path d="M336.319 125.692V111.776H337.704V125.692H336.319Z" fill="black"/>
<path d="M322.045 120.938L323.664 120.243C324.103 121.466 325.187 122.096 326.491 122.096C327.48 122.096 328.52 121.576 328.52 120.455C328.52 119.268 327.348 119.056 326.044 118.822C324.382 118.521 322.558 118.17 322.558 115.702C322.558 113.643 324.404 112.596 326.257 112.596C327.97 112.596 329.487 113.299 330.153 114.969L328.63 115.658C328.176 114.713 327.319 114.142 326.235 114.142C325.363 114.142 324.491 114.508 324.491 115.555C324.491 116.712 325.575 116.917 326.879 117.152C328.564 117.452 330.497 117.789 330.497 120.294C330.497 122.469 328.469 123.619 326.491 123.619C324.565 123.619 322.631 122.931 322.045 120.938Z" fill="black"/>
<path d="M313.601 123.473V112.75H320.727V114.369H315.681V117.247H319.782V118.778H315.681V121.854H320.976V123.473H313.601Z" fill="black"/>
<path d="M305.024 123.473V112.75H307.104V121.854H311.843V123.473H305.024Z" fill="black"/>
<path d="M295.789 123.473V112.75H302.915V114.369H297.869V117.247H301.97V118.778H297.869V121.854H303.164V123.473H295.789Z" fill="black"/>
<path d="M289.248 119.422V117.892H293.819V121.729C292.559 123.018 290.83 123.619 289.051 123.619C285.63 123.619 283.587 121.429 283.587 118.06C283.587 114.874 285.843 112.596 289.065 112.596C291.211 112.596 292.903 113.592 293.687 115.343L291.966 116.09C291.424 114.859 290.413 114.215 289.073 114.215C286.766 114.215 285.755 116.148 285.755 118.243C285.755 120.331 286.758 122.03 289.109 122.03C290.113 122.03 291.145 121.722 291.929 121.056V119.422H289.248Z" fill="black"/>
<path d="M272.63 123.473V112.75H275.091L279.771 120.411V112.75H281.646V123.473H279.493L274.505 115.313V123.473H272.63Z" fill="black"/>
<path d="M261.058 123.473L264.676 112.75H267.364L270.96 123.473H268.814L268.016 120.997H263.805L263.028 123.473H261.058ZM264.281 119.51H267.555L265.921 114.427L264.281 119.51Z" fill="black"/>
<path d="M247.897 120.938L249.516 120.243C249.955 121.466 251.039 122.096 252.343 122.096C253.332 122.096 254.372 121.576 254.372 120.455C254.372 119.268 253.2 119.056 251.896 118.822C250.234 118.521 248.41 118.17 248.41 115.702C248.41 113.643 250.255 112.596 252.109 112.596C253.822 112.596 255.339 113.299 256.005 114.969L254.482 115.658C254.027 114.713 253.171 114.142 252.087 114.142C251.215 114.142 250.343 114.508 250.343 115.555C250.343 116.712 251.427 116.917 252.731 117.152C254.416 117.452 256.349 117.789 256.349 120.294C256.349 122.469 254.32 123.619 252.343 123.619C250.417 123.619 248.483 122.931 247.897 120.938Z" fill="black"/>
<path d="M241.291 123.619C238.046 123.619 235.827 121.327 235.827 118.067C235.827 114.903 238.163 112.596 241.386 112.596C244.609 112.596 246.799 114.903 246.799 118.089C246.799 121.327 244.543 123.619 241.291 123.619ZM241.401 121.971C243.664 121.971 244.645 120.096 244.645 118.104C244.645 116.002 243.547 114.244 241.269 114.244C238.976 114.244 237.995 116.031 237.995 118.17C237.995 120.184 239.196 121.971 241.401 121.971Z" fill="black"/>
<path d="M228.02 123.473V112.75H230.1V121.854H234.839V123.473H228.02Z" fill="black"/>
<path d="M220.03 125.692V111.776H221.414V125.692H220.03Z" fill="black"/>
<path d="M208.692 123.619C205.448 123.619 203.228 121.327 203.228 118.067C203.228 114.903 205.565 112.596 208.787 112.596C212.01 112.596 214.2 114.903 214.2 118.089C214.2 121.327 211.944 123.619 208.692 123.619ZM208.802 121.971C211.065 121.971 212.047 120.096 212.047 118.104C212.047 116.002 210.948 114.244 208.67 114.244C206.378 114.244 205.396 116.031 205.396 118.17C205.396 120.184 206.598 121.971 208.802 121.971Z" fill="black"/>
<path d="M197.238 119.422V117.892H201.808V121.729C200.548 123.018 198.82 123.619 197.04 123.619C193.619 123.619 191.576 121.429 191.576 118.06C191.576 114.874 193.832 112.596 197.054 112.596C199.2 112.596 200.892 113.592 201.676 115.343L199.955 116.09C199.413 114.859 198.402 114.215 197.062 114.215C194.755 114.215 193.744 116.148 193.744 118.243C193.744 120.331 194.747 122.03 197.098 122.03C198.102 122.03 199.135 121.722 199.918 121.056V119.422H197.238Z" fill="black"/>
<path d="M180.846 123.473L184.464 112.75H187.152L190.749 123.473H188.603L187.804 120.997H183.593L182.816 123.473H180.846ZM184.069 119.51H187.343L185.709 114.427L184.069 119.51Z" fill="black"/>
<path d="M178.378 119.81L180.033 120.521C179.367 122.557 177.448 123.619 175.375 123.619C171.918 123.619 170.014 121.429 170.014 118.06C170.014 114.984 172.153 112.596 175.317 112.596C177.345 112.596 179.118 113.57 179.924 115.489L178.21 116.214C177.756 115.035 176.694 114.215 175.405 114.215C173.134 114.215 172.197 116.156 172.197 118.133C172.197 120.199 173.222 121.956 175.456 121.956C176.869 121.956 177.895 121.1 178.378 119.81Z" fill="black"/>
<path d="M165.869 123.473V112.75H167.942V123.473H165.869Z" fill="black"/>
<path d="M154.187 123.473V112.75H156.267V117.291H161.218V112.75H163.291V123.473H161.218V118.924H156.267V123.473H154.187Z" fill="black"/>
<path d="M150.76 119.81L152.415 120.521C151.748 122.557 149.829 123.619 147.757 123.619C144.3 123.619 142.395 121.429 142.395 118.06C142.395 114.984 144.534 112.596 147.698 112.596C149.727 112.596 151.499 113.57 152.305 115.489L150.591 116.214C150.137 115.035 149.075 114.215 147.786 114.215C145.515 114.215 144.578 116.156 144.578 118.133C144.578 120.199 145.603 121.956 147.837 121.956C149.251 121.956 150.276 121.1 150.76 119.81Z" fill="black"/>
<path d="M134.954 125.692V111.776H136.339V125.692H134.954Z" fill="black"/>
<path d="M120.885 123.473V112.75H122.965V117.547L127.162 112.735H129.389L124.811 117.862L129.623 123.473H127.177L122.965 118.521V123.473H120.885Z" fill="black"/>
<path d="M110.654 123.473V112.75H114.535C116.681 112.75 118.571 113.541 118.571 115.973C118.571 117.503 117.656 118.492 116.198 118.851L119.216 123.473H116.974L114.184 119.151H112.734V123.473H110.654ZM112.734 117.716H114.477C115.671 117.716 116.55 117.262 116.55 115.98C116.55 114.654 115.612 114.339 114.477 114.339H112.734V117.716Z" fill="black"/>
<path d="M103.183 123.619C99.9385 123.619 97.7192 121.327 97.7192 118.067C97.7192 114.903 100.056 112.596 103.278 112.596C106.501 112.596 108.691 114.903 108.691 118.089C108.691 121.327 106.435 123.619 103.183 123.619ZM103.293 121.971C105.556 121.971 106.538 120.096 106.538 118.104C106.538 116.002 105.439 114.244 103.161 114.244C100.869 114.244 99.8872 116.031 99.8872 118.17C99.8872 120.184 101.088 121.971 103.293 121.971Z" fill="black"/>
<path d="M92.0432 123.473V118.91L88.5349 112.75H90.8347L93.1638 117.218L95.427 112.75H97.4485L94.1453 118.91V123.473H92.0432Z" fill="black"/>
<path d="M72.869 123.473L70.0126 112.75H72.1219L74.1434 120.594L76.3334 112.75H78.0765L80.3104 120.638L82.3466 112.75H84.2875L81.453 123.473H79.3876L77.1464 115.702L74.8539 123.473H72.869Z" fill="black"/>
<path d="M61.634 123.473V112.75H68.7605V114.369H63.7141V117.247H67.8157V118.778H63.7141V121.854H69.0095V123.473H61.634Z" fill="black"/>
<path d="M50.1279 123.473V112.75H52.5889L57.269 120.411V112.75H59.144V123.473H56.9907L52.0029 115.313V123.473H50.1279Z" fill="black"/>
<defs>
<linearGradient id="paint0_linear_8068_292" x1="246.808" y1="59.9358" x2="284.062" y2="59.9358" gradientUnits="userSpaceOnUse">
<stop stop-color="#E45E34"/>
<stop offset="1" stop-color="#A50000"/>
</linearGradient>
<linearGradient id="paint1_linear_8068_292" x1="335.285" y1="59.9358" x2="400.479" y2="59.9358" gradientUnits="userSpaceOnUse">
<stop stop-color="#E45E34"/>
<stop offset="1" stop-color="#A50000"/>
</linearGradient>
<linearGradient id="paint2_linear_8068_292" x1="428.794" y1="64.5093" x2="473.372" y2="64.5093" gradientUnits="userSpaceOnUse">
<stop stop-color="#E45E34"/>
<stop offset="1" stop-color="#A50000"/>
</linearGradient>
<linearGradient id="paint3_linear_8068_292" x1="204.233" y1="59.9358" x2="241.486" y2="59.9358" gradientUnits="userSpaceOnUse">
<stop stop-color="#E45E34"/>
<stop offset="1" stop-color="#A50000"/>
</linearGradient>
<linearGradient id="paint4_linear_8068_292" x1="100.455" y1="59.9358" x2="147.022" y2="59.9358" gradientUnits="userSpaceOnUse">
<stop stop-color="#E45E34"/>
<stop offset="1" stop-color="#A50000"/>
</linearGradient>
<linearGradient id="paint5_linear_8068_292" x1="289.384" y1="59.9358" x2="335.95" y2="59.9358" gradientUnits="userSpaceOnUse">
<stop stop-color="#E45E34"/>
<stop offset="1" stop-color="#A50000"/>
</linearGradient>
<linearGradient id="paint6_linear_8068_292" x1="53.8887" y1="59.9358" x2="100.455" y2="59.9358" gradientUnits="userSpaceOnUse">
<stop stop-color="#E45E34"/>
<stop offset="1" stop-color="#A50000"/>
</linearGradient>
<linearGradient id="paint7_linear_8068_292" x1="484.515" y1="66.0261" x2="529.086" y2="66.0261" gradientUnits="userSpaceOnUse">
<stop stop-color="#E45E34"/>
<stop offset="1" stop-color="#A50000"/>
</linearGradient>
<linearGradient id="paint8_linear_8068_292" x1="2" y1="78.5625" x2="400.326" y2="78.5625" gradientUnits="userSpaceOnUse">
<stop stop-color="#E45E34"/>
<stop offset="1" stop-color="#A50000"/>
</linearGradient>
<linearGradient id="paint9_linear_8068_292" x1="152.344" y1="59.9358" x2="198.911" y2="59.9358" gradientUnits="userSpaceOnUse">
<stop stop-color="#E45E34"/>
<stop offset="1" stop-color="#A50000"/>
</linearGradient>
</defs>
</svg>
